;TYPE=PLATED
;Layer: PTH_Through
;EasyEDA Pro v2.2.35.2, 2025-01-10 12:29:17
;Gerber Generator version 0.3
M48
METRIC,LZ,0000.00000
;Hole size 1 = 0.70002 METRIC
T01C0.70002
;Hole size 2 = 0.90002 METRIC
T02C0.90002
;Hole size 3 = 1.00000 METRIC
T03C1.00000
;Hole size 4 = 1.10002 METRIC
T04C1.10002
;Hole size 5 = 1.19990 METRIC
T05C1.19990
;Hole size 6 = 1.20000 METRIC
T06C1.20000
;Hole size 7 = 1.40000 METRIC
T07C1.40000
;Hole size 8 = 1.80000 METRIC
T08C1.80000
%
G05
G90
T01
X32.286Y35.715
X32.286Y34.445
X32.286Y33.175
T02
X33.016Y42.445
X35.556Y42.445
X20.286Y46.19506
X20.286Y38.69494
X24.286Y38.69494
X24.286Y46.19506
X28.286Y38.69494
X28.286Y46.19506
T03
X24.286Y24.985
X24.286Y19.905
X24.286Y13.985
X24.286Y8.905
X44.63606Y33.445
X35.93595Y33.445
X33.286Y10.715
X33.286Y8.175
X16.096Y39.255
X13.556Y39.255
X11.016Y39.255
X8.476Y39.255
X8.476Y31.635
X11.016Y31.635
X13.556Y31.635
X16.096Y31.635
X26.78612Y34.94499
X21.786Y34.94499
X24.286Y29.945
T04
X5.286Y35.175
X5.286Y37.715
X5.286Y28.175
X5.286Y30.715
T05
X6.53599Y44.945
X12.03601Y44.945
X6.53599Y41.945
X12.03601Y41.945
T06
X8.286Y7.69501
X8.286Y27.19499
X14.286Y7.69501
X14.286Y27.19499
T07
X44.78599Y10.445
X39.786Y10.445
X39.786Y42.445
X44.78599Y42.445
T08
X37.286Y27.14502
X37.286Y22.445
X37.28595Y17.74498
M30