G04 Layer: TopLayer*
G04 EasyEDA Pro v2.2.35.2, 2025-01-10 12:29:17*
G04 Gerber Generator version 0.3*
G04 Scale: 100 percent, Rotated: No, Reflected: No*
G04 Dimensions in millimeters*
G04 Leading zeros omitted, absolute positions, 4 integers and 5 decimals*
%FSLAX45Y45*%
%MOMM*%
%ADD10C,0.2032*%
%ADD11C,0.254*%
%ADD12C,1.0*%
%ADD13C,1.6*%
%ADD14C,1.65001*%
%ADD15C,1.8*%
%ADD16R,1.6018X1.6*%
%ADD17R,1.6X1.6*%
%ADD18C,1.651*%
%ADD19O,1.6X0.9*%
%ADD20R,1.6X0.9*%
%ADD21C,2.3*%
%ADD22R,2.99999X2.49999*%
%ADD23C,2.99999*%
%ADD24R,1.8X1.8*%
%ADD25R,2.2X2.2*%
%ADD26C,2.2*%
%ADD27R,2.2X2.2*%
%ADD28R,2.2X2.1*%
%ADD29C,1.524*%
G75*


G04 Copper Start*
G36*
G01X5464186Y5464186D02*
G01X5464186Y35814D01*
G01X35814Y35814D01*
G01X35814Y5464186D01*
G01X5464186Y5464186D01*
G37*
%LPC*%
G36*
G01X726314Y4990500D02*
G03X254686Y4990500I-235814J0D01*
G03X726314Y4990500I235814J0D01*
G37*
G36*
G01X726314Y490500D02*
G03X254686Y490500I-235814J0D01*
G03X726314Y490500I235814J0D01*
G37*
G36*
G01X444939Y3687839D02*
G03X639209Y3813500I83661J83661D01*
G01X702695Y3876986D01*
G01X731516Y3876986D01*
G03X973414Y3925500I116084J48514D01*
G03X731516Y3974014I-125814J0D01*
G01X682600Y3974014D01*
G03X648295Y3959804I0J-48514D01*
G01X570600Y3882109D01*
G03X444939Y3687839I-42000J-110609D01*
G37*
G36*
G01X755600Y3022986D02*
G03X789905Y3037196I0J48514D01*
G01X799821Y3047111D01*
G03X938178Y3250820I47779J116388D01*
G03X729540Y3120014I-90578J-87320D01*
G01X636511Y3120014D01*
G03X410285Y3071500I-107911J-48514D01*
G03X636511Y3022986I118314J0D01*
G01X755600Y3022986D01*
G37*
G36*
G01X528600Y3399185D02*
G03X528600Y3635814I0J118314D01*
G03X528600Y3399185I0J-118314D01*
G37*
G36*
G01X528600Y2699186D02*
G03X528600Y2935815I0J118314D01*
G03X528600Y2699186I0J-118314D01*
G37*
G36*
G01X527786Y4494500D02*
G03X779413Y4494500I125814J0D01*
G03X527786Y4494500I-125814J0D01*
G37*
G36*
G01X527786Y4194500D02*
G03X779413Y4194500I125814J0D01*
G03X527786Y4194500I-125814J0D01*
G37*
G36*
G01X828600Y2568691D02*
G03X828600Y2870318I0J150814D01*
G03X828600Y2568691I0J-150814D01*
G37*
G36*
G01X3212786Y1065954D02*
G01X3212786Y991500D01*
G03X3248600Y955686I35814J0D01*
G01X3408600Y955686D01*
G03X3444414Y991500I0J35814D01*
G01X3444414Y1151500D01*
G03X3408600Y1187314I-35814J0D01*
G01X3334145Y1187314D01*
G01X3305080Y1216380D01*
G03X3244400Y1241514I-60680J-60680D01*
G01X1181100Y1241514D01*
G03X1120420Y1216380I0J-85814D01*
G01X824288Y920248D01*
G03X744672Y644192I4312J-150752D01*
G03X969647Y822887I83928J125303D01*
G01X1216645Y1069886D01*
G01X3208855Y1069886D01*
G01X3212786Y1065954D01*
G37*
G36*
G01X1227414Y3925500D02*
G03X975786Y3925500I-125814J0D01*
G03X1227414Y3925500I125814J0D01*
G37*
G36*
G01X1894586Y1884000D02*
G03X1908795Y1849695I48514J0D01*
G01X2319934Y1438557D01*
G03X2510493Y1316607I108666J-40057D01*
G03X2388543Y1507166I-81893J81893D01*
G01X1991614Y1904095D01*
G01X1991614Y2501900D01*
G03X1977405Y2536205I-48514J0D01*
G01X1441776Y3071833D01*
G03X1478561Y3136859I-86176J91667D01*
G03X1471988Y3211279I-122961J26641D01*
G01X1837705Y3576995D01*
G03X1851914Y3611300I-34305J34305D01*
G01X1851914Y4374211D01*
G01X1991513Y4513809D01*
G03X2107806Y4698711I37087J105696D01*
G03X1922904Y4582419I-79206J-79206D01*
G01X1769095Y4428610D01*
G03X1754886Y4394306I34305J-34305D01*
G01X1754886Y3631395D01*
G01X1403379Y3279888D01*
G03X1239516Y3212014I-47779J-116388D01*
G01X1217684Y3212014D01*
G03X975786Y3163500I-116084J-48514D01*
G03X1217684Y3114986I125814J0D01*
G01X1239516Y3114986D01*
G03X1337378Y3039013I116084J48514D01*
G01X1894586Y2481805D01*
G01X1894586Y1884000D01*
G37*
G36*
G01X1281340Y3823939D02*
G03X1481235Y3932200I74260J101561D01*
G03X1483786Y3936295I-71535J47400D01*
G01X1483786Y3835500D01*
G03X1519600Y3799686I35814J0D01*
G01X1699600Y3799686D01*
G03X1735414Y3835500I0J35814D01*
G01X1735414Y4015500D01*
G03X1699600Y4051314I-35814J0D01*
G01X1519600Y4051314D01*
G03X1495514Y4042004I0J-35814D01*
G01X1495514Y4305300D01*
G03X1470380Y4365980I-85814J0D01*
G01X1328727Y4507632D01*
G03X1103759Y4571055I-125127J-13132D01*
G03X1223389Y4370252I99842J-76555D01*
G01X1323886Y4269755D01*
G01X1323886Y4231387D01*
G03X1077787Y4194500I-120285J-36886D01*
G03X1323886Y4157614I125814J0D01*
G01X1323886Y4047251D01*
G03X1281340Y3823939I31714J-121751D01*
G37*
G36*
G01X1428600Y618682D02*
G03X1428600Y920309I0J150814D01*
G03X1428600Y618682I0J-150814D01*
G37*
G36*
G01X1428600Y2568691D02*
G03X1428600Y2870318I0J150814D01*
G03X1428600Y2568691I0J-150814D01*
G37*
G36*
G01X2407063Y2384706D02*
G03X2534196Y2450937I21537J113794D01*
G01X2739279Y2656020D01*
G03X2764413Y2716699I-60680J60680D01*
G01X2764413Y3287326D01*
G01X3397918Y2653822D01*
G03X3458597Y2628688I60680J60680D01*
G01X3542786Y2628688D01*
G01X3542786Y2589502D01*
G03X3578600Y2553688I35814J0D01*
G01X3878600Y2553688D01*
G03X3914414Y2589502I0J35814D01*
G01X3914414Y2673954D01*
G01X4459222Y3218762D01*
G03X4564413Y3419772I4378J125738D01*
G01X4564413Y4126612D01*
G03X4478599Y4390314I-85814J117888D01*
G03X4392785Y4126612I0J-145814D01*
G01X4392785Y3448492D01*
G03X4337863Y3340122I70815J-103992D01*
G01X3873056Y2875315D01*
G01X3578600Y2875315D01*
G03X3542786Y2839501I0J-35814D01*
G01X3542786Y2800316D01*
G01X3494143Y2800316D01*
G01X2824413Y3470045D01*
G01X2824413Y3599499D01*
G03X2788599Y3635313I-35814J0D01*
G01X2754461Y3635313D01*
G03X2739279Y3655880I-75862J-40113D01*
G01X2714714Y3680445D01*
G01X2714714Y4457700D01*
G03X2689580Y4518380I-85814J0D01*
G01X2527774Y4680185D01*
G03X2515170Y4690589I-60680J-60680D01*
G03X2322421Y4655188I-86570J-71083D01*
G03X2454672Y4510568I106179J-35682D01*
G01X2543086Y4422155D01*
G01X2543086Y3644900D01*
G03X2545080Y3626508I85814J0D01*
G03X2532786Y3599499I23520J-27009D01*
G01X2532786Y3389500D01*
G03X2568600Y3353686I35814J0D01*
G01X2592785Y3353686D01*
G01X2592785Y2752245D01*
G01X2452386Y2611845D01*
G03X2434285Y2614174I-23786J-113345D01*
G01X1824280Y3224180D01*
G03X1763600Y3249314I-60680J-60680D01*
G01X1701606Y3249314D01*
G03X1483786Y3163500I-92006J-85814D01*
G03X1701606Y3077686I125814J0D01*
G01X1728055Y3077686D01*
G01X2312926Y2492815D01*
G03X2407063Y2384706I115674J5685D01*
G37*
G36*
G01X2130086Y3356993D02*
G01X2130086Y3244500D01*
G03X2144296Y3210195I48514J0D01*
G01X2297064Y3057428D01*
G03X2531706Y2891395I131536J-62927D01*
G03X2365673Y3126037I-103106J103106D01*
G01X2227114Y3264595D01*
G01X2227114Y3356993D01*
G03X2181423Y3640286I-48514J137507D01*
G01X2077114Y3744595D01*
G01X2077114Y3768531D01*
G03X2028600Y3981508I-48514J100963D01*
G03X1980086Y3768531I0J-112014D01*
G01X1980086Y3724500D01*
G03X1994295Y3690195I48514J0D01*
G01X2081347Y3603143D01*
G03X2130086Y3356993I97253J-108644D01*
G37*
G36*
G01X2428600Y2106314D02*
G03X2428600Y1874686I0J-115814D01*
G03X2428600Y2106314I0J115814D01*
G37*
G36*
G01X2428600Y1006314D02*
G03X2428600Y774686I0J-115814D01*
G03X2428600Y1006314I0J115814D01*
G37*
G36*
G01X2428600Y3757480D02*
G03X2428600Y3981508I0J112014D01*
G03X2428600Y3757480I0J-112014D01*
G37*
G36*
G01X2935986Y3558800D02*
G03X2950195Y3524496I48514J0D01*
G01X3064495Y3410196D01*
G03X3098800Y3395986I34305J34305D01*
G01X3128968Y3395986D01*
G03X3130833Y3393596I64632J48514D01*
G03X3112786Y3362500I17767J-31096D01*
G01X3112786Y3272500D01*
G03X3148600Y3236686I35814J0D01*
G01X3199736Y3236686D01*
G03X3228600Y3231686I28864J80814D01*
G01X3537903Y3231686D01*
G03X3697111Y3272984I55697J112814D01*
G03X3679414Y3436506I-103511J71516D01*
G01X3679414Y4158686D01*
G01X3832787Y4158686D01*
G01X3832787Y4134500D01*
G03X3868601Y4098686I35814J0D01*
G01X4088600Y4098686D01*
G03X4124414Y4134500I0J35814D01*
G01X4124414Y4354500D01*
G03X4088600Y4390314I-35814J0D01*
G01X3868601Y4390314D01*
G03X3832787Y4354500I0J-35814D01*
G01X3832787Y4330314D01*
G01X3637123Y4330314D01*
G03X3457102Y4310137I-81523J-85814D01*
G03X3507786Y4136223I98498J-65637D01*
G01X3507786Y3436506D01*
G03X3482379Y3403314I85814J-92006D01*
G01X3333131Y3403314D01*
G03X3313586Y3508000I-69531J41186D01*
G03X3263600Y3652314I-49986J63500D01*
G01X3193600Y3652314D01*
G03X3143614Y3508000I0J-80814D01*
G03X3128968Y3493014I49986J-63500D01*
G01X3118895Y3493014D01*
G01X3033014Y3578895D01*
G01X3033014Y4463606D01*
G03X3018805Y4497910I-48514J0D01*
G01X2934296Y4582419D01*
G03X2749394Y4698711I-105696J37087D01*
G03X2865687Y4513809I79206J-79206D01*
G01X2935986Y4443510D01*
G01X2935986Y3901359D01*
G03X2716586Y3869494I-107386J-31865D01*
G03X2935986Y3837630I112014J0D01*
G01X2935986Y3558800D01*
G37*
G36*
G01X3419964Y4244500D02*
G03X3183236Y4244500I-118364J0D01*
G03X3419964Y4244500I118364J0D01*
G37*
G36*
G01X3328600Y933314D02*
G03X3328600Y701686I0J-115814D01*
G03X3328600Y933314I0J115814D01*
G37*
G36*
G01X3728600Y1960312D02*
G03X3728600Y1588685I0J-185814D01*
G03X3728600Y1960312I0J185814D01*
G37*
G36*
G01X4392785Y1190314D02*
G01X4368600Y1190314D01*
G03X4332786Y1154500I0J-35814D01*
G01X4332786Y934500D01*
G03X4368600Y898686I35814J0D01*
G01X4588599Y898686D01*
G03X4624413Y934500I0J35814D01*
G01X4624413Y1154500D01*
G03X4588599Y1190314I-35814J0D01*
G01X4564413Y1190314D01*
G01X4564413Y1494501D01*
G03X4539279Y1555180I-85814J0D01*
G01X3905819Y2188641D01*
G03X3597210Y2375890I-177219J55859D01*
G03X3784459Y2067281I131390J-131390D01*
G01X4392785Y1458955D01*
G01X4392785Y1190314D01*
G37*
G36*
G01X4124414Y1044500D02*
G03X3832787Y1044500I-145814J0D01*
G03X4124414Y1044500I145814J0D01*
G37*
G36*
G01X5226314Y4990500D02*
G03X4754686Y4990500I-235814J0D01*
G03X5226314Y4990500I235814J0D01*
G37*
G36*
G01X5226314Y490500D02*
G03X4754686Y490500I-235814J0D01*
G03X5226314Y490500I235814J0D01*
G37*
%LPD*%
G54D10*
G01X5464186Y5464186D02*
G01X5464186Y35814D01*
G01X35814Y35814D01*
G01X35814Y5464186D01*
G01X5464186Y5464186D01*
G01X726314Y4990500D02*
G03X254686Y4990500I-235814J0D01*
G03X726314Y4990500I235814J0D01*
G01X726314Y490500D02*
G03X254686Y490500I-235814J0D01*
G03X726314Y490500I235814J0D01*
G01X444939Y3687839D02*
G03X639209Y3813500I83661J83661D01*
G01X702695Y3876986D01*
G01X731516Y3876986D01*
G03X973414Y3925500I116084J48514D01*
G03X731516Y3974014I-125814J0D01*
G01X682600Y3974014D01*
G03X648295Y3959804I0J-48514D01*
G01X570600Y3882109D01*
G03X444939Y3687839I-42000J-110609D01*
G01X755600Y3022986D02*
G03X789905Y3037196I0J48514D01*
G01X799821Y3047111D01*
G03X938178Y3250820I47779J116388D01*
G03X729540Y3120014I-90578J-87320D01*
G01X636511Y3120014D01*
G03X410285Y3071500I-107911J-48514D01*
G03X636511Y3022986I118314J0D01*
G01X755600Y3022986D01*
G01X528600Y3399185D02*
G03X528600Y3635814I0J118314D01*
G03X528600Y3399185I0J-118314D01*
G01X528600Y2699186D02*
G03X528600Y2935815I0J118314D01*
G03X528600Y2699186I0J-118314D01*
G01X527786Y4494500D02*
G03X779413Y4494500I125814J0D01*
G03X527786Y4494500I-125814J0D01*
G01X527786Y4194500D02*
G03X779413Y4194500I125814J0D01*
G03X527786Y4194500I-125814J0D01*
G01X828600Y2568691D02*
G03X828600Y2870318I0J150814D01*
G03X828600Y2568691I0J-150814D01*
G01X3212786Y1065954D02*
G01X3212786Y991500D01*
G03X3248600Y955686I35814J0D01*
G01X3408600Y955686D01*
G03X3444414Y991500I0J35814D01*
G01X3444414Y1151500D01*
G03X3408600Y1187314I-35814J0D01*
G01X3334145Y1187314D01*
G01X3305080Y1216380D01*
G03X3244400Y1241514I-60680J-60680D01*
G01X1181100Y1241514D01*
G03X1120420Y1216380I0J-85814D01*
G01X824288Y920248D01*
G03X744672Y644192I4312J-150752D01*
G03X969647Y822887I83928J125303D01*
G01X1216645Y1069886D01*
G01X3208855Y1069886D01*
G01X3212786Y1065954D01*
G01X1227414Y3925500D02*
G03X975786Y3925500I-125814J0D01*
G03X1227414Y3925500I125814J0D01*
G01X1894586Y1884000D02*
G03X1908795Y1849695I48514J0D01*
G01X2319934Y1438557D01*
G03X2510493Y1316607I108666J-40057D01*
G03X2388543Y1507166I-81893J81893D01*
G01X1991614Y1904095D01*
G01X1991614Y2501900D01*
G03X1977405Y2536205I-48514J0D01*
G01X1441776Y3071833D01*
G03X1478561Y3136859I-86176J91667D01*
G03X1471988Y3211279I-122961J26641D01*
G01X1837705Y3576995D01*
G03X1851914Y3611300I-34305J34305D01*
G01X1851914Y4374211D01*
G01X1991513Y4513809D01*
G03X2107806Y4698711I37087J105696D01*
G03X1922904Y4582419I-79206J-79206D01*
G01X1769095Y4428610D01*
G03X1754886Y4394306I34305J-34305D01*
G01X1754886Y3631395D01*
G01X1403379Y3279888D01*
G03X1239516Y3212014I-47779J-116388D01*
G01X1217684Y3212014D01*
G03X975786Y3163500I-116084J-48514D01*
G03X1217684Y3114986I125814J0D01*
G01X1239516Y3114986D01*
G03X1337378Y3039013I116084J48514D01*
G01X1894586Y2481805D01*
G01X1894586Y1884000D01*
G01X1281340Y3823939D02*
G03X1481235Y3932200I74260J101561D01*
G03X1483786Y3936295I-71535J47400D01*
G01X1483786Y3835500D01*
G03X1519600Y3799686I35814J0D01*
G01X1699600Y3799686D01*
G03X1735414Y3835500I0J35814D01*
G01X1735414Y4015500D01*
G03X1699600Y4051314I-35814J0D01*
G01X1519600Y4051314D01*
G03X1495514Y4042004I0J-35814D01*
G01X1495514Y4305300D01*
G03X1470380Y4365980I-85814J0D01*
G01X1328727Y4507632D01*
G03X1103759Y4571055I-125127J-13132D01*
G03X1223389Y4370252I99842J-76555D01*
G01X1323886Y4269755D01*
G01X1323886Y4231387D01*
G03X1077787Y4194500I-120285J-36886D01*
G03X1323886Y4157614I125814J0D01*
G01X1323886Y4047251D01*
G03X1281340Y3823939I31714J-121751D01*
G01X1428600Y618682D02*
G03X1428600Y920309I0J150814D01*
G03X1428600Y618682I0J-150814D01*
G01X1428600Y2568691D02*
G03X1428600Y2870318I0J150814D01*
G03X1428600Y2568691I0J-150814D01*
G01X2407063Y2384706D02*
G03X2534196Y2450937I21537J113794D01*
G01X2739279Y2656020D01*
G03X2764413Y2716699I-60680J60680D01*
G01X2764413Y3287326D01*
G01X3397918Y2653822D01*
G03X3458597Y2628688I60680J60680D01*
G01X3542786Y2628688D01*
G01X3542786Y2589502D01*
G03X3578600Y2553688I35814J0D01*
G01X3878600Y2553688D01*
G03X3914414Y2589502I0J35814D01*
G01X3914414Y2673954D01*
G01X4459222Y3218762D01*
G03X4564413Y3419772I4378J125738D01*
G01X4564413Y4126612D01*
G03X4478599Y4390314I-85814J117888D01*
G03X4392785Y4126612I0J-145814D01*
G01X4392785Y3448492D01*
G03X4337863Y3340122I70815J-103992D01*
G01X3873056Y2875315D01*
G01X3578600Y2875315D01*
G03X3542786Y2839501I0J-35814D01*
G01X3542786Y2800316D01*
G01X3494143Y2800316D01*
G01X2824413Y3470045D01*
G01X2824413Y3599499D01*
G03X2788599Y3635313I-35814J0D01*
G01X2754461Y3635313D01*
G03X2739279Y3655880I-75862J-40113D01*
G01X2714714Y3680445D01*
G01X2714714Y4457700D01*
G03X2689580Y4518380I-85814J0D01*
G01X2527774Y4680185D01*
G03X2515170Y4690589I-60680J-60680D01*
G03X2322421Y4655188I-86570J-71083D01*
G03X2454672Y4510568I106179J-35682D01*
G01X2543086Y4422155D01*
G01X2543086Y3644900D01*
G03X2545080Y3626508I85814J0D01*
G03X2532786Y3599499I23520J-27009D01*
G01X2532786Y3389500D01*
G03X2568600Y3353686I35814J0D01*
G01X2592785Y3353686D01*
G01X2592785Y2752245D01*
G01X2452386Y2611845D01*
G03X2434285Y2614174I-23786J-113345D01*
G01X1824280Y3224180D01*
G03X1763600Y3249314I-60680J-60680D01*
G01X1701606Y3249314D01*
G03X1483786Y3163500I-92006J-85814D01*
G03X1701606Y3077686I125814J0D01*
G01X1728055Y3077686D01*
G01X2312926Y2492815D01*
G03X2407063Y2384706I115674J5685D01*
G01X2130086Y3356993D02*
G01X2130086Y3244500D01*
G03X2144296Y3210195I48514J0D01*
G01X2297064Y3057428D01*
G03X2531706Y2891395I131536J-62927D01*
G03X2365673Y3126037I-103106J103106D01*
G01X2227114Y3264595D01*
G01X2227114Y3356993D01*
G03X2181423Y3640286I-48514J137507D01*
G01X2077114Y3744595D01*
G01X2077114Y3768531D01*
G03X2028600Y3981508I-48514J100963D01*
G03X1980086Y3768531I0J-112014D01*
G01X1980086Y3724500D01*
G03X1994295Y3690195I48514J0D01*
G01X2081347Y3603143D01*
G03X2130086Y3356993I97253J-108644D01*
G01X2428600Y2106314D02*
G03X2428600Y1874686I0J-115814D01*
G03X2428600Y2106314I0J115814D01*
G01X2428600Y1006314D02*
G03X2428600Y774686I0J-115814D01*
G03X2428600Y1006314I0J115814D01*
G01X2428600Y3757480D02*
G03X2428600Y3981508I0J112014D01*
G03X2428600Y3757480I0J-112014D01*
G01X2935986Y3558800D02*
G03X2950195Y3524496I48514J0D01*
G01X3064495Y3410196D01*
G03X3098800Y3395986I34305J34305D01*
G01X3128968Y3395986D01*
G03X3130833Y3393596I64632J48514D01*
G03X3112786Y3362500I17767J-31096D01*
G01X3112786Y3272500D01*
G03X3148600Y3236686I35814J0D01*
G01X3199736Y3236686D01*
G03X3228600Y3231686I28864J80814D01*
G01X3537903Y3231686D01*
G03X3697111Y3272984I55697J112814D01*
G03X3679414Y3436506I-103511J71516D01*
G01X3679414Y4158686D01*
G01X3832787Y4158686D01*
G01X3832787Y4134500D01*
G03X3868601Y4098686I35814J0D01*
G01X4088600Y4098686D01*
G03X4124414Y4134500I0J35814D01*
G01X4124414Y4354500D01*
G03X4088600Y4390314I-35814J0D01*
G01X3868601Y4390314D01*
G03X3832787Y4354500I0J-35814D01*
G01X3832787Y4330314D01*
G01X3637123Y4330314D01*
G03X3457102Y4310137I-81523J-85814D01*
G03X3507786Y4136223I98498J-65637D01*
G01X3507786Y3436506D01*
G03X3482379Y3403314I85814J-92006D01*
G01X3333131Y3403314D01*
G03X3313586Y3508000I-69531J41186D01*
G03X3263600Y3652314I-49986J63500D01*
G01X3193600Y3652314D01*
G03X3143614Y3508000I0J-80814D01*
G03X3128968Y3493014I49986J-63500D01*
G01X3118895Y3493014D01*
G01X3033014Y3578895D01*
G01X3033014Y4463606D01*
G03X3018805Y4497910I-48514J0D01*
G01X2934296Y4582419D01*
G03X2749394Y4698711I-105696J37087D01*
G03X2865687Y4513809I79206J-79206D01*
G01X2935986Y4443510D01*
G01X2935986Y3901359D01*
G03X2716586Y3869494I-107386J-31865D01*
G03X2935986Y3837630I112014J0D01*
G01X2935986Y3558800D01*
G01X3419964Y4244500D02*
G03X3183236Y4244500I-118364J0D01*
G03X3419964Y4244500I118364J0D01*
G01X3328600Y933314D02*
G03X3328600Y701686I0J-115814D01*
G03X3328600Y933314I0J115814D01*
G01X3728600Y1960312D02*
G03X3728600Y1588685I0J-185814D01*
G03X3728600Y1960312I0J185814D01*
G01X4392785Y1190314D02*
G01X4368600Y1190314D01*
G03X4332786Y1154500I0J-35814D01*
G01X4332786Y934500D01*
G03X4368600Y898686I35814J0D01*
G01X4588599Y898686D01*
G03X4624413Y934500I0J35814D01*
G01X4624413Y1154500D01*
G03X4588599Y1190314I-35814J0D01*
G01X4564413Y1190314D01*
G01X4564413Y1494501D01*
G03X4539279Y1555180I-85814J0D01*
G01X3905819Y2188641D01*
G03X3597210Y2375890I-177219J55859D01*
G03X3784459Y2067281I131390J-131390D01*
G01X4392785Y1458955D01*
G01X4392785Y1190314D01*
G01X4124414Y1044500D02*
G03X3832787Y1044500I-145814J0D01*
G03X4124414Y1044500I145814J0D01*
G01X5226314Y4990500D02*
G03X4754686Y4990500I-235814J0D01*
G03X5226314Y4990500I235814J0D01*
G01X5226314Y490500D02*
G03X4754686Y490500I-235814J0D01*
G03X5226314Y490500I235814J0D01*
G54D11*
G01X528600Y2735254D02*
G01X528600Y2709346D01*
G01X528600Y2899747D02*
G01X528600Y2925655D01*
G01X446353Y2817500D02*
G01X420445Y2817500D01*
G01X610846Y2817500D02*
G01X636754Y2817500D01*
G01X528600Y3435253D02*
G01X528600Y3409345D01*
G01X528600Y3599746D02*
G01X528600Y3625654D01*
G01X446353Y3517500D02*
G01X420445Y3517500D01*
G01X610846Y3517500D02*
G01X636754Y3517500D01*
G01X1113855Y4194500D02*
G01X1087947Y4194500D01*
G01X1203601Y4284246D02*
G01X1203601Y4310154D01*
G01X1203601Y4104755D02*
G01X1203601Y4078847D01*
G01X1699346Y3925500D02*
G01X1725254Y3925500D01*
G01X1519854Y3925500D02*
G01X1493946Y3925500D01*
G01X1609600Y3835754D02*
G01X1609600Y3809846D01*
G01X1609600Y4015246D02*
G01X1609600Y4041154D01*
G01X2428600Y970246D02*
G01X2428600Y996154D01*
G01X2428600Y810754D02*
G01X2428600Y784846D01*
G01X2508346Y890500D02*
G01X2534254Y890500D01*
G01X2348854Y890500D02*
G01X2322946Y890500D01*
G01X2428600Y2070246D02*
G01X2428600Y2096154D01*
G01X2428600Y1910754D02*
G01X2428600Y1884846D01*
G01X2508346Y1990500D02*
G01X2534254Y1990500D01*
G01X2348854Y1990500D02*
G01X2322946Y1990500D01*
G01X3228600Y3616246D02*
G01X3228600Y3642154D01*
G01X3148854Y3571500D02*
G01X3122946Y3571500D01*
G01X3308346Y3571500D02*
G01X3334254Y3571500D01*
G01X3328600Y897246D02*
G01X3328600Y923154D01*
G01X3328600Y737754D02*
G01X3328600Y711846D01*
G01X3408346Y817500D02*
G01X3434254Y817500D01*
G01X3248854Y817500D02*
G01X3222946Y817500D01*
G01X4088346Y1044500D02*
G01X4114254Y1044500D01*
G01X3868855Y1044500D02*
G01X3842947Y1044500D01*
G01X3978600Y934754D02*
G01X3978600Y908846D01*
G01X3978600Y1154246D02*
G01X3978600Y1180154D01*
G04 Copper End*

G04 PolygonModel Start*
G54D12*
G01X1355600Y3925500D02*
G01X1409700Y3979600D01*
G01X1409700Y4305300D01*
G01X1220500Y4494500D01*
G01X1203601Y4494500D01*

G04 Pad Start*
G54D13*
G01X2428600Y2498500D03*
G01X2428600Y1990500D03*
G01X2428600Y1398500D03*
G01X2428600Y890500D03*
G54D14*
G01X528600Y3517500D03*
G01X528600Y3771500D03*
G01X528600Y2817500D03*
G01X528600Y3071500D03*
G54D15*
G01X4463600Y3344500D03*
G01X3593600Y3344500D03*
G54D17*
G01X3328600Y1071500D03*
G54D13*
G01X3328600Y817500D03*
G54D18*
G01X3301600Y4244500D03*
G01X3555600Y4244500D03*
G54D19*
G01X3228600Y3571500D03*
G01X3228600Y3444500D03*
G54D20*
G01X3228600Y3317500D03*
G54D21*
G01X828600Y769496D03*
G01X828600Y2719504D03*
G01X1428600Y769496D03*
G01X1428600Y2719504D03*
G54D22*
G01X3728600Y2714502D03*
G54D23*
G01X3728600Y2244500D03*
G01X3728600Y1774498D03*
G54D15*
G01X653599Y4494500D03*
G01X1203601Y4494500D03*
G01X653599Y4194500D03*
G01X1203601Y4194500D03*
G54D24*
G01X1609600Y3925500D03*
G54D15*
G01X1355600Y3925500D03*
G01X1101600Y3925500D03*
G01X847600Y3925500D03*
G01X847600Y3163500D03*
G01X1101600Y3163500D03*
G01X1355600Y3163500D03*
G01X1609600Y3163500D03*
G54D25*
G01X4478599Y1044500D03*
G54D26*
G01X3978600Y1044500D03*
G54D27*
G01X3978600Y4244500D03*
G54D26*
G01X4478599Y4244500D03*
G54D28*
G01X2678599Y3494499D03*
G54D26*
G01X2178600Y3494499D03*
G01X2428600Y2994500D03*
G54D29*
G01X2028600Y4619506D03*
G01X2028600Y3869494D03*
G01X2428600Y3869494D03*
G01X2428600Y4619506D03*
G01X2828600Y3869494D03*
G01X2828600Y4619506D03*
G04 Pad End*

G04 Track Start*
G54D12*
G01X4478599Y1044500D02*
G01X4478599Y1494501D01*
G01X3728600Y2244500D01*
G01X4478599Y4244500D02*
G01X4478599Y3359499D01*
G01X3593600Y3344500D02*
G01X3593600Y4206500D01*
G01X3555600Y4244500D01*
G01X3978600Y4244500D01*
G01X3728600Y2714502D02*
G01X3833602Y2714502D01*
G01X4463600Y3344500D01*
G01X2428600Y2498500D02*
G01X1763600Y3163500D01*
G01X1609600Y3163500D01*
G01X2678599Y3494499D02*
G01X3458597Y2714502D01*
G01X3728600Y2714502D01*
G01X2678599Y3494499D02*
G01X2678599Y2716699D01*
G01X2460400Y2498500D02*
G01X2428600Y2498500D01*
G01X2678599Y2716699D02*
G01X2460400Y2498500D01*
G01X3228600Y3317500D02*
G01X3566600Y3317500D01*
G01X3593600Y3344500D01*
G54D11*
G01X3228600Y3444500D02*
G01X3098800Y3444500D01*
G01X2984500Y3558800D01*
G01X2984500Y4463606D02*
G01X2828600Y4619506D01*
G01X2984500Y3558800D02*
G01X2984500Y4463606D01*
G01X528600Y3071500D02*
G01X755600Y3071500D01*
G01X847600Y3163500D01*
G01X528600Y3771500D02*
G01X682600Y3925500D01*
G01X847600Y3925500D01*
G01X1355600Y3163500D02*
G01X1803400Y3611300D01*
G01X1803400Y4394306D02*
G01X2028600Y4619506D01*
G01X1803400Y3611300D02*
G01X1803400Y4394306D01*
G01X2428600Y2994500D02*
G01X2178600Y3244500D01*
G01X2178600Y3494499D01*
G01X2178600Y3574500D01*
G01X2028600Y3724500D02*
G01X2028600Y3869494D01*
G01X2178600Y3574500D02*
G01X2028600Y3724500D01*
G01X1355600Y3163500D02*
G01X1101600Y3163500D01*
G01X2428600Y1398500D02*
G01X1943100Y1884000D01*
G01X1943100Y2501900D01*
G01X1355600Y3089400D01*
G01X1355600Y3163500D01*
G54D12*
G01X3328600Y1071500D02*
G01X3244400Y1155700D01*
G01X1181100Y1155700D01*
G01X828600Y803200D01*
G01X828600Y769496D01*
G01X2467094Y4619506D02*
G01X2428600Y4619506D01*
G01X2678599Y3494499D02*
G01X2678599Y3595201D01*
G01X2628900Y3644900D01*
G01X2628900Y4457700D01*
G01X2467094Y4619506D01*
G04 Track End*

M02*

