G04 Layer: TopSilkscreenLayer*
G04 EasyEDA Pro v2.2.35.2, 2025-01-10 12:29:17*
G04 Gerber Generator version 0.3*
G04 Scale: 100 percent, Rotated: No, Reflected: No*
G04 Dimensions in millimeters*
G04 Leading zeros omitted, absolute positions, 4 integers and 5 decimals*
%FSLAX45Y45*%
%MOMM*%
%ADD10C,0.1524*%
%ADD11C,0.254*%
%ADD12C,0.4*%
G75*


G04 Text Start*
G54D10*
G01X2606802Y2517140D02*
G01X2603754Y2523490D01*
G01X2597404Y2529586D01*
G01X2591308Y2532634D01*
G01X2578862Y2532634D01*
G01X2572766Y2529586D01*
G01X2566416Y2523490D01*
G01X2563368Y2517140D01*
G01X2560320Y2507996D01*
G01X2560320Y2492502D01*
G01X2563368Y2483104D01*
G01X2566416Y2477008D01*
G01X2572766Y2470658D01*
G01X2578862Y2467610D01*
G01X2591308Y2467610D01*
G01X2597404Y2470658D01*
G01X2603754Y2477008D01*
G01X2606802Y2483104D01*
G01X2637028Y2520188D02*
G01X2643124Y2523490D01*
G01X2652268Y2532634D01*
G01X2652268Y2467610D01*
G01X2619502Y1412240D02*
G01X2616454Y1418590D01*
G01X2610104Y1424686D01*
G01X2604008Y1427734D01*
G01X2591562Y1427734D01*
G01X2585466Y1424686D01*
G01X2579116Y1418590D01*
G01X2576068Y1412240D01*
G01X2573020Y1403096D01*
G01X2573020Y1387602D01*
G01X2576068Y1378204D01*
G01X2579116Y1372108D01*
G01X2585466Y1365758D01*
G01X2591562Y1362710D01*
G01X2604008Y1362710D01*
G01X2610104Y1365758D01*
G01X2616454Y1372108D01*
G01X2619502Y1378204D01*
G01X2652776Y1412240D02*
G01X2652776Y1415288D01*
G01X2655824Y1421638D01*
G01X2658872Y1424686D01*
G01X2664968Y1427734D01*
G01X2677414Y1427734D01*
G01X2683764Y1424686D01*
G01X2686812Y1421638D01*
G01X2689860Y1415288D01*
G01X2689860Y1409192D01*
G01X2686812Y1403096D01*
G01X2680462Y1393698D01*
G01X2649728Y1362710D01*
G01X2692908Y1362710D01*
G01X511302Y4028440D02*
G01X508254Y4034790D01*
G01X501904Y4040886D01*
G01X495808Y4043934D01*
G01X483362Y4043934D01*
G01X477266Y4040886D01*
G01X470916Y4034790D01*
G01X467868Y4028440D01*
G01X464820Y4019296D01*
G01X464820Y4003802D01*
G01X467868Y3994404D01*
G01X470916Y3988308D01*
G01X477266Y3981958D01*
G01X483362Y3978910D01*
G01X495808Y3978910D01*
G01X501904Y3981958D01*
G01X508254Y3988308D01*
G01X511302Y3994404D01*
G01X547624Y4043934D02*
G01X581660Y4043934D01*
G01X563118Y4019296D01*
G01X572262Y4019296D01*
G01X578612Y4016248D01*
G01X581660Y4012946D01*
G01X584708Y4003802D01*
G01X584708Y3997452D01*
G01X581660Y3988308D01*
G01X575564Y3981958D01*
G01X566166Y3978910D01*
G01X556768Y3978910D01*
G01X547624Y3981958D01*
G01X544576Y3985260D01*
G01X541528Y3991356D01*
G01X511302Y2606040D02*
G01X508254Y2612390D01*
G01X501904Y2618486D01*
G01X495808Y2621534D01*
G01X483362Y2621534D01*
G01X477266Y2618486D01*
G01X470916Y2612390D01*
G01X467868Y2606040D01*
G01X464820Y2596896D01*
G01X464820Y2581402D01*
G01X467868Y2572004D01*
G01X470916Y2565908D01*
G01X477266Y2559558D01*
G01X483362Y2556510D01*
G01X495808Y2556510D01*
G01X501904Y2559558D01*
G01X508254Y2565908D01*
G01X511302Y2572004D01*
G01X572262Y2621534D02*
G01X541528Y2578354D01*
G01X587756Y2578354D01*
G01X572262Y2621534D02*
G01X572262Y2556510D01*
G01X3830320Y3624834D02*
G01X3830320Y3559810D01*
G01X3830320Y3624834D02*
G01X3870452Y3624834D01*
G01X3830320Y3593846D02*
G01X3855212Y3593846D01*
G01X3900678Y3624834D02*
G01X3900678Y3559810D01*
G01X3933952Y3603244D02*
G01X3952494Y3559810D01*
G01X3971036Y3603244D02*
G01X3952494Y3559810D01*
G01X3946144Y3547618D01*
G01X3940048Y3541268D01*
G01X3933952Y3538220D01*
G01X3930904Y3538220D01*
G01X4001262Y3624834D02*
G01X4001262Y3559810D01*
G01X4001262Y3593846D02*
G01X4007358Y3600196D01*
G01X4013454Y3603244D01*
G01X4022852Y3603244D01*
G01X4028948Y3600196D01*
G01X4035298Y3593846D01*
G01X4038346Y3584702D01*
G01X4038346Y3578352D01*
G01X4035298Y3569208D01*
G01X4028948Y3562858D01*
G01X4022852Y3559810D01*
G01X4013454Y3559810D01*
G01X4007358Y3562858D01*
G01X4001262Y3569208D01*
G01X4105656Y3603244D02*
G01X4105656Y3559810D01*
G01X4105656Y3593846D02*
G01X4099306Y3600196D01*
G01X4093210Y3603244D01*
G01X4083812Y3603244D01*
G01X4077716Y3600196D01*
G01X4071620Y3593846D01*
G01X4068572Y3584702D01*
G01X4068572Y3578352D01*
G01X4071620Y3569208D01*
G01X4077716Y3562858D01*
G01X4083812Y3559810D01*
G01X4093210Y3559810D01*
G01X4099306Y3562858D01*
G01X4105656Y3569208D01*
G01X4172966Y3593846D02*
G01X4166616Y3600196D01*
G01X4160520Y3603244D01*
G01X4151122Y3603244D01*
G01X4145026Y3600196D01*
G01X4138930Y3593846D01*
G01X4135882Y3584702D01*
G01X4135882Y3578352D01*
G01X4138930Y3569208D01*
G01X4145026Y3562858D01*
G01X4151122Y3559810D01*
G01X4160520Y3559810D01*
G01X4166616Y3562858D01*
G01X4172966Y3569208D01*
G01X4203192Y3624834D02*
G01X4203192Y3559810D01*
G01X4233926Y3603244D02*
G01X4203192Y3572256D01*
G01X4215384Y3584702D02*
G01X4237228Y3559810D01*
G01X3208020Y1427734D02*
G01X3208020Y1362710D01*
G01X3208020Y1427734D02*
G01X3235960Y1427734D01*
G01X3245104Y1424686D01*
G01X3248152Y1421638D01*
G01X3251454Y1415288D01*
G01X3251454Y1406144D01*
G01X3248152Y1400048D01*
G01X3245104Y1396746D01*
G01X3235960Y1393698D01*
G01X3208020Y1393698D01*
G01X3296920Y1406144D02*
G01X3290824Y1403096D01*
G01X3284728Y1396746D01*
G01X3281680Y1387602D01*
G01X3281680Y1381252D01*
G01X3284728Y1372108D01*
G01X3290824Y1365758D01*
G01X3296920Y1362710D01*
G01X3306318Y1362710D01*
G01X3312414Y1365758D01*
G01X3318764Y1372108D01*
G01X3321812Y1381252D01*
G01X3321812Y1387602D01*
G01X3318764Y1396746D01*
G01X3312414Y1403096D01*
G01X3306318Y1406144D01*
G01X3296920Y1406144D01*
G01X3352038Y1406144D02*
G01X3364230Y1362710D01*
G01X3376676Y1406144D02*
G01X3364230Y1362710D01*
G01X3376676Y1406144D02*
G01X3389122Y1362710D01*
G01X3401568Y1406144D02*
G01X3389122Y1362710D01*
G01X3431794Y1387602D02*
G01X3468878Y1387602D01*
G01X3468878Y1393698D01*
G01X3465830Y1400048D01*
G01X3462528Y1403096D01*
G01X3456432Y1406144D01*
G01X3447034Y1406144D01*
G01X3440938Y1403096D01*
G01X3434842Y1396746D01*
G01X3431794Y1387602D01*
G01X3431794Y1381252D01*
G01X3434842Y1372108D01*
G01X3440938Y1365758D01*
G01X3447034Y1362710D01*
G01X3456432Y1362710D01*
G01X3462528Y1365758D01*
G01X3468878Y1372108D01*
G01X3499104Y1406144D02*
G01X3499104Y1362710D01*
G01X3499104Y1387602D02*
G01X3502152Y1396746D01*
G01X3508248Y1403096D01*
G01X3514344Y1406144D01*
G01X3523742Y1406144D01*
G01X3156712Y4577334D02*
G01X3131820Y4512310D01*
G01X3156712Y4577334D02*
G01X3181350Y4512310D01*
G01X3141218Y4534154D02*
G01X3171952Y4534154D01*
G01X3248660Y4546346D02*
G01X3242310Y4552696D01*
G01X3236214Y4555744D01*
G01X3226816Y4555744D01*
G01X3220720Y4552696D01*
G01X3214624Y4546346D01*
G01X3211576Y4537202D01*
G01X3211576Y4530852D01*
G01X3214624Y4521708D01*
G01X3220720Y4515358D01*
G01X3226816Y4512310D01*
G01X3236214Y4512310D01*
G01X3242310Y4515358D01*
G01X3248660Y4521708D01*
G01X3288030Y4577334D02*
G01X3288030Y4524756D01*
G01X3291078Y4515358D01*
G01X3297428Y4512310D01*
G01X3303524Y4512310D01*
G01X3278886Y4555744D02*
G01X3300476Y4555744D01*
G01X3333750Y4555744D02*
G01X3333750Y4524756D01*
G01X3336798Y4515358D01*
G01X3342894Y4512310D01*
G01X3352292Y4512310D01*
G01X3358388Y4515358D01*
G01X3367786Y4524756D01*
G01X3367786Y4555744D02*
G01X3367786Y4512310D01*
G01X3435096Y4555744D02*
G01X3435096Y4512310D01*
G01X3435096Y4546346D02*
G01X3428746Y4552696D01*
G01X3422650Y4555744D01*
G01X3413252Y4555744D01*
G01X3407156Y4552696D01*
G01X3401060Y4546346D01*
G01X3398012Y4537202D01*
G01X3398012Y4530852D01*
G01X3401060Y4521708D01*
G01X3407156Y4515358D01*
G01X3413252Y4512310D01*
G01X3422650Y4512310D01*
G01X3428746Y4515358D01*
G01X3435096Y4521708D01*
G01X3474466Y4577334D02*
G01X3474466Y4524756D01*
G01X3477514Y4515358D01*
G01X3483864Y4512310D01*
G01X3489960Y4512310D01*
G01X3465322Y4555744D02*
G01X3486912Y4555744D01*
G01X3520186Y4577334D02*
G01X3523234Y4574286D01*
G01X3526282Y4577334D01*
G01X3523234Y4580382D01*
G01X3520186Y4577334D01*
G01X3523234Y4555744D02*
G01X3523234Y4512310D01*
G01X3571748Y4555744D02*
G01X3565652Y4552696D01*
G01X3559556Y4546346D01*
G01X3556508Y4537202D01*
G01X3556508Y4530852D01*
G01X3559556Y4521708D01*
G01X3565652Y4515358D01*
G01X3571748Y4512310D01*
G01X3581146Y4512310D01*
G01X3587242Y4515358D01*
G01X3593592Y4521708D01*
G01X3596640Y4530852D01*
G01X3596640Y4537202D01*
G01X3593592Y4546346D01*
G01X3587242Y4552696D01*
G01X3581146Y4555744D01*
G01X3571748Y4555744D01*
G01X3626866Y4555744D02*
G01X3626866Y4512310D01*
G01X3626866Y4543298D02*
G01X3636010Y4552696D01*
G01X3642106Y4555744D01*
G01X3651504Y4555744D01*
G01X3657600Y4552696D01*
G01X3660902Y4543298D01*
G01X3660902Y4512310D01*
G01X3004820Y3815334D02*
G01X3004820Y3750310D01*
G01X3004820Y3815334D02*
G01X3048254Y3750310D01*
G01X3048254Y3815334D02*
G01X3048254Y3750310D01*
G01X3078480Y3815334D02*
G01X3078480Y3750310D01*
G01X3078480Y3815334D02*
G01X3106166Y3815334D01*
G01X3115564Y3812286D01*
G01X3118612Y3809238D01*
G01X3121660Y3802888D01*
G01X3121660Y3793744D01*
G01X3118612Y3787648D01*
G01X3115564Y3784346D01*
G01X3106166Y3781298D01*
G01X3078480Y3781298D01*
G01X3151886Y3815334D02*
G01X3151886Y3750310D01*
G01X3151886Y3815334D02*
G01X3195066Y3750310D01*
G01X3195066Y3815334D02*
G01X3195066Y3750310D01*
G01X3294634Y3815334D02*
G01X3294634Y3750310D01*
G01X3294634Y3815334D02*
G01X3322320Y3815334D01*
G01X3331718Y3812286D01*
G01X3334766Y3809238D01*
G01X3337814Y3802888D01*
G01X3337814Y3796792D01*
G01X3334766Y3790696D01*
G01X3331718Y3787648D01*
G01X3322320Y3784346D01*
G01X3294634Y3784346D02*
G01X3322320Y3784346D01*
G01X3331718Y3781298D01*
G01X3334766Y3778250D01*
G01X3337814Y3772154D01*
G01X3337814Y3762756D01*
G01X3334766Y3756660D01*
G01X3331718Y3753358D01*
G01X3322320Y3750310D01*
G01X3294634Y3750310D01*
G01X3398774Y3815334D02*
G01X3398774Y3765804D01*
G01X3395726Y3756660D01*
G01X3392678Y3753358D01*
G01X3386582Y3750310D01*
G01X3380232Y3750310D01*
G01X3374136Y3753358D01*
G01X3371088Y3756660D01*
G01X3368040Y3765804D01*
G01X3368040Y3772154D01*
G01X3450590Y3815334D02*
G01X3450590Y3750310D01*
G01X3429000Y3815334D02*
G01X3472180Y3815334D01*
G01X769620Y1757934D02*
G01X769620Y1692910D01*
G01X769620Y1757934D02*
G01X797560Y1757934D01*
G01X806704Y1754886D01*
G01X809752Y1751838D01*
G01X813054Y1745488D01*
G01X813054Y1739392D01*
G01X809752Y1733296D01*
G01X806704Y1730248D01*
G01X797560Y1726946D01*
G01X769620Y1726946D01*
G01X791210Y1726946D02*
G01X813054Y1692910D01*
G01X843280Y1745488D02*
G01X849376Y1748790D01*
G01X858520Y1757934D01*
G01X858520Y1692910D01*
G01X1366520Y1770634D02*
G01X1366520Y1705610D01*
G01X1366520Y1770634D02*
G01X1394460Y1770634D01*
G01X1403604Y1767586D01*
G01X1406652Y1764538D01*
G01X1409954Y1758188D01*
G01X1409954Y1752092D01*
G01X1406652Y1745996D01*
G01X1403604Y1742948D01*
G01X1394460Y1739646D01*
G01X1366520Y1739646D01*
G01X1388110Y1739646D02*
G01X1409954Y1705610D01*
G01X1446276Y1770634D02*
G01X1480312Y1770634D01*
G01X1461770Y1745996D01*
G01X1470914Y1745996D01*
G01X1477264Y1742948D01*
G01X1480312Y1739646D01*
G01X1483360Y1730502D01*
G01X1483360Y1724152D01*
G01X1480312Y1715008D01*
G01X1474216Y1708658D01*
G01X1464818Y1705610D01*
G01X1455420Y1705610D01*
G01X1446276Y1708658D01*
G01X1443228Y1711960D01*
G01X1440180Y1718056D01*
G01X4262120Y3027934D02*
G01X4262120Y2962910D01*
G01X4262120Y3027934D02*
G01X4290060Y3027934D01*
G01X4299204Y3024886D01*
G01X4302252Y3021838D01*
G01X4305554Y3015488D01*
G01X4305554Y3009392D01*
G01X4302252Y3003296D01*
G01X4299204Y3000248D01*
G01X4290060Y2996946D01*
G01X4262120Y2996946D02*
G01X4290060Y2996946D01*
G01X4299204Y2993898D01*
G01X4302252Y2990850D01*
G01X4305554Y2984754D01*
G01X4305554Y2975356D01*
G01X4302252Y2969260D01*
G01X4299204Y2965958D01*
G01X4290060Y2962910D01*
G01X4262120Y2962910D01*
G01X4372864Y3006344D02*
G01X4372864Y2962910D01*
G01X4372864Y2996946D02*
G01X4366514Y3003296D01*
G01X4360418Y3006344D01*
G01X4351020Y3006344D01*
G01X4344924Y3003296D01*
G01X4338828Y2996946D01*
G01X4335780Y2987802D01*
G01X4335780Y2981452D01*
G01X4338828Y2972308D01*
G01X4344924Y2965958D01*
G01X4351020Y2962910D01*
G01X4360418Y2962910D01*
G01X4366514Y2965958D01*
G01X4372864Y2972308D01*
G01X4412234Y3027934D02*
G01X4412234Y2975356D01*
G01X4415282Y2965958D01*
G01X4421632Y2962910D01*
G01X4427728Y2962910D01*
G01X4403090Y3006344D02*
G01X4424680Y3006344D01*
G01X4467098Y3027934D02*
G01X4467098Y2975356D01*
G01X4470146Y2965958D01*
G01X4476496Y2962910D01*
G01X4482592Y2962910D01*
G01X4457954Y3006344D02*
G01X4479544Y3006344D01*
G01X4512818Y2987802D02*
G01X4549902Y2987802D01*
G01X4549902Y2993898D01*
G01X4546854Y3000248D01*
G01X4543552Y3003296D01*
G01X4537456Y3006344D01*
G01X4528058Y3006344D01*
G01X4521962Y3003296D01*
G01X4515866Y2996946D01*
G01X4512818Y2987802D01*
G01X4512818Y2981452D01*
G01X4515866Y2972308D01*
G01X4521962Y2965958D01*
G01X4528058Y2962910D01*
G01X4537456Y2962910D01*
G01X4543552Y2965958D01*
G01X4549902Y2972308D01*
G01X4580128Y3006344D02*
G01X4580128Y2962910D01*
G01X4580128Y2987802D02*
G01X4583176Y2996946D01*
G01X4589272Y3003296D01*
G01X4595368Y3006344D01*
G01X4604766Y3006344D01*
G01X4638040Y3006344D02*
G01X4656582Y2962910D01*
G01X4675124Y3006344D02*
G01X4656582Y2962910D01*
G01X4650232Y2950718D01*
G01X4644136Y2944368D01*
G01X4638040Y2941320D01*
G01X4634992Y2941320D01*
G01X762762Y4717034D02*
G01X756666Y4713986D01*
G01X750316Y4707890D01*
G01X747268Y4701540D01*
G01X744220Y4692396D01*
G01X744220Y4676902D01*
G01X747268Y4667504D01*
G01X750316Y4661408D01*
G01X756666Y4655058D01*
G01X762762Y4652010D01*
G01X775208Y4652010D01*
G01X781304Y4655058D01*
G01X787654Y4661408D01*
G01X790702Y4667504D01*
G01X793750Y4676902D01*
G01X793750Y4692396D01*
G01X790702Y4701540D01*
G01X787654Y4707890D01*
G01X781304Y4713986D01*
G01X775208Y4717034D01*
G01X762762Y4717034D01*
G01X823976Y4695444D02*
G01X823976Y4652010D01*
G01X823976Y4682998D02*
G01X833120Y4692396D01*
G01X839216Y4695444D01*
G01X848614Y4695444D01*
G01X854710Y4692396D01*
G01X858012Y4682998D01*
G01X858012Y4652010D01*
G01X1000760Y4707890D02*
G01X994664Y4713986D01*
G01X985266Y4717034D01*
G01X972820Y4717034D01*
G01X963676Y4713986D01*
G01X957580Y4707890D01*
G01X957580Y4701540D01*
G01X960628Y4695444D01*
G01X963676Y4692396D01*
G01X969772Y4689348D01*
G01X988314Y4682998D01*
G01X994664Y4679950D01*
G01X997712Y4676902D01*
G01X1000760Y4670552D01*
G01X1000760Y4661408D01*
G01X994664Y4655058D01*
G01X985266Y4652010D01*
G01X972820Y4652010D01*
G01X963676Y4655058D01*
G01X957580Y4661408D01*
G01X1030986Y4717034D02*
G01X1046226Y4652010D01*
G01X1061720Y4717034D02*
G01X1046226Y4652010D01*
G01X1061720Y4717034D02*
G01X1077214Y4652010D01*
G01X1092708Y4717034D02*
G01X1077214Y4652010D01*
G01X1187704Y3548634D02*
G01X1156716Y3548634D01*
G01X1153668Y3520948D01*
G01X1156716Y3523996D01*
G01X1166114Y3527044D01*
G01X1175512Y3527044D01*
G01X1184656Y3523996D01*
G01X1190752Y3517646D01*
G01X1194054Y3508502D01*
G01X1194054Y3502152D01*
G01X1190752Y3493008D01*
G01X1184656Y3486658D01*
G01X1175512Y3483610D01*
G01X1166114Y3483610D01*
G01X1156716Y3486658D01*
G01X1153668Y3489960D01*
G01X1150620Y3496056D01*
G01X1261364Y3548634D02*
G01X1230376Y3548634D01*
G01X1227328Y3520948D01*
G01X1230376Y3523996D01*
G01X1239520Y3527044D01*
G01X1248918Y3527044D01*
G01X1258316Y3523996D01*
G01X1264412Y3517646D01*
G01X1267460Y3508502D01*
G01X1267460Y3502152D01*
G01X1264412Y3493008D01*
G01X1258316Y3486658D01*
G01X1248918Y3483610D01*
G01X1239520Y3483610D01*
G01X1230376Y3486658D01*
G01X1227328Y3489960D01*
G01X1224280Y3496056D01*
G01X1334770Y3548634D02*
G01X1303782Y3548634D01*
G01X1300734Y3520948D01*
G01X1303782Y3523996D01*
G01X1312926Y3527044D01*
G01X1322324Y3527044D01*
G01X1331722Y3523996D01*
G01X1337818Y3517646D01*
G01X1340866Y3508502D01*
G01X1340866Y3502152D01*
G01X1337818Y3493008D01*
G01X1331722Y3486658D01*
G01X1322324Y3483610D01*
G01X1312926Y3483610D01*
G01X1303782Y3486658D01*
G01X1300734Y3489960D01*
G01X1297686Y3496056D01*
G01X3208020Y1567434D02*
G01X3208020Y1502410D01*
G01X3208020Y1567434D02*
G01X3235960Y1567434D01*
G01X3245104Y1564386D01*
G01X3248152Y1561338D01*
G01X3251454Y1554988D01*
G01X3251454Y1548892D01*
G01X3248152Y1542796D01*
G01X3245104Y1539748D01*
G01X3235960Y1536446D01*
G01X3208020Y1536446D02*
G01X3235960Y1536446D01*
G01X3245104Y1533398D01*
G01X3248152Y1530350D01*
G01X3251454Y1524254D01*
G01X3251454Y1514856D01*
G01X3248152Y1508760D01*
G01X3245104Y1505458D01*
G01X3235960Y1502410D01*
G01X3208020Y1502410D01*
G01X3318764Y1545844D02*
G01X3318764Y1502410D01*
G01X3318764Y1536446D02*
G01X3312414Y1542796D01*
G01X3306318Y1545844D01*
G01X3296920Y1545844D01*
G01X3290824Y1542796D01*
G01X3284728Y1536446D01*
G01X3281680Y1527302D01*
G01X3281680Y1520952D01*
G01X3284728Y1511808D01*
G01X3290824Y1505458D01*
G01X3296920Y1502410D01*
G01X3306318Y1502410D01*
G01X3312414Y1505458D01*
G01X3318764Y1511808D01*
G01X3358134Y1567434D02*
G01X3358134Y1514856D01*
G01X3361182Y1505458D01*
G01X3367532Y1502410D01*
G01X3373628Y1502410D01*
G01X3348990Y1545844D02*
G01X3370580Y1545844D01*
G01X3412998Y1567434D02*
G01X3412998Y1514856D01*
G01X3416046Y1505458D01*
G01X3422396Y1502410D01*
G01X3428492Y1502410D01*
G01X3403854Y1545844D02*
G01X3425444Y1545844D01*
G01X3458718Y1527302D02*
G01X3495802Y1527302D01*
G01X3495802Y1533398D01*
G01X3492754Y1539748D01*
G01X3489452Y1542796D01*
G01X3483356Y1545844D01*
G01X3473958Y1545844D01*
G01X3467862Y1542796D01*
G01X3461766Y1536446D01*
G01X3458718Y1527302D01*
G01X3458718Y1520952D01*
G01X3461766Y1511808D01*
G01X3467862Y1505458D01*
G01X3473958Y1502410D01*
G01X3483356Y1502410D01*
G01X3489452Y1505458D01*
G01X3495802Y1511808D01*
G01X3526028Y1545844D02*
G01X3526028Y1502410D01*
G01X3526028Y1527302D02*
G01X3529076Y1536446D01*
G01X3535172Y1542796D01*
G01X3541268Y1545844D01*
G01X3550666Y1545844D01*
G01X3583940Y1545844D02*
G01X3602482Y1502410D01*
G01X3621024Y1545844D02*
G01X3602482Y1502410D01*
G01X3596132Y1490218D01*
G01X3590036Y1483868D01*
G01X3583940Y1480820D01*
G01X3580892Y1480820D01*
G01X3373120Y4691634D02*
G01X3373120Y4626610D01*
G01X3373120Y4691634D02*
G01X3401060Y4691634D01*
G01X3410204Y4688586D01*
G01X3413252Y4685538D01*
G01X3416554Y4679188D01*
G01X3416554Y4673092D01*
G01X3413252Y4666996D01*
G01X3410204Y4663948D01*
G01X3401060Y4660646D01*
G01X3373120Y4660646D01*
G01X3394710Y4660646D02*
G01X3416554Y4626610D01*
G01X3446780Y4651502D02*
G01X3483864Y4651502D01*
G01X3483864Y4657598D01*
G01X3480816Y4663948D01*
G01X3477514Y4666996D01*
G01X3471418Y4670044D01*
G01X3462020Y4670044D01*
G01X3455924Y4666996D01*
G01X3449828Y4660646D01*
G01X3446780Y4651502D01*
G01X3446780Y4645152D01*
G01X3449828Y4636008D01*
G01X3455924Y4629658D01*
G01X3462020Y4626610D01*
G01X3471418Y4626610D01*
G01X3477514Y4629658D01*
G01X3483864Y4636008D01*
G01X3514090Y4691634D02*
G01X3514090Y4626610D01*
G01X3581400Y4670044D02*
G01X3581400Y4626610D01*
G01X3581400Y4660646D02*
G01X3575050Y4666996D01*
G01X3568954Y4670044D01*
G01X3559556Y4670044D01*
G01X3553460Y4666996D01*
G01X3547364Y4660646D01*
G01X3544316Y4651502D01*
G01X3544316Y4645152D01*
G01X3547364Y4636008D01*
G01X3553460Y4629658D01*
G01X3559556Y4626610D01*
G01X3568954Y4626610D01*
G01X3575050Y4629658D01*
G01X3581400Y4636008D01*
G01X3614674Y4670044D02*
G01X3633216Y4626610D01*
G01X3651758Y4670044D02*
G01X3633216Y4626610D01*
G01X3626866Y4614418D01*
G01X3620770Y4608068D01*
G01X3614674Y4605020D01*
G01X3611626Y4605020D01*
G01X2331720Y3535934D02*
G01X2331720Y3470910D01*
G01X2331720Y3535934D02*
G01X2359660Y3535934D01*
G01X2368804Y3532886D01*
G01X2371852Y3529838D01*
G01X2375154Y3523488D01*
G01X2375154Y3514344D01*
G01X2371852Y3508248D01*
G01X2368804Y3504946D01*
G01X2359660Y3501898D01*
G01X2331720Y3501898D01*
G01X2423922Y3535934D02*
G01X2417572Y3532886D01*
G01X2411476Y3526790D01*
G01X2408428Y3520440D01*
G01X2405380Y3511296D01*
G01X2405380Y3495802D01*
G01X2408428Y3486404D01*
G01X2411476Y3480308D01*
G01X2417572Y3473958D01*
G01X2423922Y3470910D01*
G01X2436114Y3470910D01*
G01X2442464Y3473958D01*
G01X2448560Y3480308D01*
G01X2451608Y3486404D01*
G01X2454910Y3495802D01*
G01X2454910Y3511296D01*
G01X2451608Y3520440D01*
G01X2448560Y3526790D01*
G01X2442464Y3532886D01*
G01X2436114Y3535934D01*
G01X2423922Y3535934D01*
G01X2506726Y3535934D02*
G01X2506726Y3470910D01*
G01X2485136Y3535934D02*
G01X2528316Y3535934D01*
G01X1772920Y4640834D02*
G01X1772920Y4594352D01*
G01X1775968Y4585208D01*
G01X1782318Y4578858D01*
G01X1791462Y4575810D01*
G01X1797812Y4575810D01*
G01X1806956Y4578858D01*
G01X1813052Y4585208D01*
G01X1816354Y4594352D01*
G01X1816354Y4640834D01*
G01X1883664Y4631690D02*
G01X1880616Y4637786D01*
G01X1871218Y4640834D01*
G01X1865122Y4640834D01*
G01X1855724Y4637786D01*
G01X1849628Y4628388D01*
G01X1846580Y4613148D01*
G01X1846580Y4597654D01*
G01X1849628Y4585208D01*
G01X1855724Y4578858D01*
G01X1865122Y4575810D01*
G01X1868170Y4575810D01*
G01X1877314Y4578858D01*
G01X1883664Y4585208D01*
G01X1886712Y4594352D01*
G01X1886712Y4597654D01*
G01X1883664Y4606798D01*
G01X1877314Y4613148D01*
G01X1868170Y4616196D01*
G01X1865122Y4616196D01*
G01X1855724Y4613148D01*
G01X1849628Y4606798D01*
G01X1846580Y4597654D01*
G01X2166620Y4640834D02*
G01X2166620Y4594352D01*
G01X2169668Y4585208D01*
G01X2176018Y4578858D01*
G01X2185162Y4575810D01*
G01X2191512Y4575810D01*
G01X2200656Y4578858D01*
G01X2206752Y4585208D01*
G01X2210054Y4594352D01*
G01X2210054Y4640834D01*
G01X2283460Y4640834D02*
G01X2252472Y4575810D01*
G01X2240280Y4640834D02*
G01X2283460Y4640834D01*
G01X2573020Y4653534D02*
G01X2573020Y4607052D01*
G01X2576068Y4597908D01*
G01X2582418Y4591558D01*
G01X2591562Y4588510D01*
G01X2597912Y4588510D01*
G01X2607056Y4591558D01*
G01X2613152Y4597908D01*
G01X2616454Y4607052D01*
G01X2616454Y4653534D01*
G01X2661920Y4653534D02*
G01X2652776Y4650486D01*
G01X2649728Y4644390D01*
G01X2649728Y4638040D01*
G01X2652776Y4631944D01*
G01X2658872Y4628896D01*
G01X2671318Y4625848D01*
G01X2680716Y4622546D01*
G01X2686812Y4616450D01*
G01X2689860Y4610354D01*
G01X2689860Y4600956D01*
G01X2686812Y4594860D01*
G01X2683764Y4591558D01*
G01X2674366Y4588510D01*
G01X2661920Y4588510D01*
G01X2652776Y4591558D01*
G01X2649728Y4594860D01*
G01X2646680Y4600956D01*
G01X2646680Y4610354D01*
G01X2649728Y4616450D01*
G01X2655824Y4622546D01*
G01X2665222Y4625848D01*
G01X2677414Y4628896D01*
G01X2683764Y4631944D01*
G01X2686812Y4638040D01*
G01X2686812Y4644390D01*
G01X2683764Y4650486D01*
G01X2674366Y4653534D01*
G01X2661920Y4653534D01*
G04 Text End*

G04 PolygonModel Start*
G54D11*
G01X2428600Y2701700D02*
G01X2428600Y2600100D01*
G01X2504800Y2650900D02*
G01X2352400Y2650900D01*
G36*
G01X2784200Y1888900D02*
G01X2073000Y1888900D01*
G01X2174600Y1812700D01*
G01X2327000Y1761900D01*
G01X2479400Y1736500D01*
G01X2581000Y1761900D01*
G01X2784200Y1888900D01*
G37*
G01X2428600Y1601700D02*
G01X2428600Y1500100D01*
G01X2504800Y1550900D02*
G01X2352400Y1550900D01*
G36*
G01X2784200Y788900D02*
G01X2073000Y788900D01*
G01X2174600Y712700D01*
G01X2327000Y661900D01*
G01X2479400Y636500D01*
G01X2581000Y661900D01*
G01X2784200Y788900D01*
G37*
G01X414300Y3352400D02*
G01X655600Y3352400D01*
G01X655600Y3352400D02*
G01X655600Y3936600D01*
G01X655600Y3936600D02*
G01X414300Y3936600D01*
G01X414300Y3936600D02*
G01X414300Y3352400D01*
G01X414300Y2652400D02*
G01X655600Y2652400D01*
G01X655600Y2652400D02*
G01X655600Y3236600D01*
G01X655600Y3236600D02*
G01X414300Y3236600D01*
G01X414300Y3236600D02*
G01X414300Y2652400D01*
G01X4288600Y3204500D02*
G01X3768601Y3204500D01*
G01X3768601Y3204500D02*
G01X3768601Y3484500D01*
G01X4288600Y3484500D02*
G01X3768601Y3484500D01*
G01X4288600Y3204500D02*
G01X4288600Y3484500D01*
G01X4192674Y3204500D02*
G01X4192674Y3484500D01*
G01X3138100Y690500D02*
G01X3519100Y690500D01*
G01X3481000Y1071500D02*
G01X3481000Y1020700D01*
G01X3506400Y1046100D02*
G01X3455600Y1046100D01*
G01X3138100Y690501D02*
G02X3519100Y690501I190500J254000D01*
G01X3578600Y4112209D02*
G01X3578600Y4139435D01*
G01X3578600Y4349565D02*
G01X3578600Y4376791D01*
G01X3338600Y4374500D02*
G01X3398600Y4374500D01*
G01X3368600Y4404500D02*
G01X3368600Y4344500D01*
G01X3253160Y4148478D02*
G03X3578600Y4112212I175441J96022D01*
G01X3578600Y4376788D02*
G03X3253160Y4340522I-149999J-132288D01*
G01X3378587Y3642491D02*
G01X3378587Y3246510D01*
G01X3378714Y3642620D02*
G03X3378714Y3246380I-149840J-198120D01*
G01X578601Y969503D02*
G01X1078600Y969500D01*
G01X578601Y969503D02*
G01X578601Y2519454D01*
G01X578601Y2519454D02*
G01X1078600Y2519454D01*
G01X1078600Y969500D02*
G01X1078600Y2519454D01*
G01X1178600Y969503D02*
G01X1678599Y969500D01*
G01X1178600Y969503D02*
G01X1178600Y2519454D01*
G01X1178600Y2519454D02*
G01X1678599Y2519454D01*
G01X1678599Y969500D02*
G01X1678599Y2519454D01*
G01X4786599Y2634499D02*
G01X5273596Y2634499D01*
G01X5273596Y2634499D02*
G01X5273596Y2244500D01*
G01X5273596Y2244500D02*
G01X4773597Y2244500D01*
G01X4773597Y2891999D02*
G01X4143598Y2891999D01*
G01X4143598Y2891999D02*
G01X4143598Y1597001D01*
G01X4143598Y1597001D02*
G01X4773597Y1597001D01*
G01X4773597Y1597001D02*
G01X4773597Y2890999D01*
G01X1153593Y4393225D02*
G01X1153593Y4295775D01*
G01X1118986Y4119507D02*
G01X738214Y4119507D01*
G01X1118986Y4569493D02*
G01X738214Y4569493D01*
G01X703607Y4295775D02*
G01X703607Y4393225D01*
G01X1736600Y3797563D02*
G01X720600Y3797563D01*
G01X1736600Y3291137D02*
G01X720600Y3291137D01*
G01X720600Y3797563D02*
G01X720600Y3291137D01*
G01X1736600Y3797563D02*
G01X1736600Y3620700D01*
G01X1736600Y3468300D02*
G01X1736600Y3291137D01*
G01X1736600Y3468300D02*
G02X1736600Y3620700I0J76200D01*
G01X4728599Y594501D02*
G01X4728599Y1494497D01*
G01X3728601Y594501D02*
G01X3728601Y1494497D01*
G01X4728599Y1494497D02*
G01X3728601Y1494497D01*
G01X4728599Y594501D02*
G01X3728601Y594501D01*
G01X3728601Y4694499D02*
G01X3728601Y3794503D01*
G01X4728599Y4694499D02*
G01X4728599Y3794503D01*
G01X3728601Y3794503D02*
G01X4728599Y3794503D01*
G01X3728601Y4694499D02*
G01X4728599Y4694499D01*
G01X2038545Y3504431D02*
G01X2038545Y3634428D01*
G01X2038545Y3634428D02*
G01X2828536Y3634428D01*
G01X2828536Y3634428D02*
G01X2828536Y3044462D01*
G01X2828536Y3044462D02*
G01X2638518Y2854445D01*
G01X2638518Y2854445D02*
G01X2238519Y2854445D01*
G01X2238519Y2854445D02*
G01X2038545Y3054419D01*
G01X2038545Y3054419D02*
G01X2038545Y3504431D01*
G01X2678523Y3144437D02*
G01X2168542Y3144437D01*
G01X2168542Y3144437D02*
G01X2168542Y3294449D01*
G01X2168542Y3294449D02*
G01X2678523Y3294449D01*
G01X2678523Y3294449D02*
G01X2678523Y3144437D01*
G01X2028605Y4069499D02*
G01X2028605Y3968814D01*
G01X2027663Y4419501D02*
G01X2027663Y4523900D01*
G01X2123601Y4419501D02*
G01X2123601Y4069499D01*
G01X1933599Y4069499D02*
G01X2123601Y4069499D01*
G01X1933599Y4419501D02*
G01X2123601Y4419501D01*
G01X1933599Y4419501D02*
G01X1933599Y4069499D01*
G01X2428595Y4419501D02*
G01X2428595Y4520187D01*
G01X2429537Y4069499D02*
G01X2429537Y3965100D01*
G01X2333599Y4069499D02*
G01X2333599Y4419501D01*
G01X2523601Y4419501D02*
G01X2333599Y4419501D01*
G01X2523601Y4069499D02*
G01X2333599Y4069499D01*
G01X2523601Y4069499D02*
G01X2523601Y4419501D01*
G01X2828595Y4419501D02*
G01X2828595Y4520187D01*
G01X2829537Y4069499D02*
G01X2829537Y3965100D01*
G01X2733599Y4069499D02*
G01X2733599Y4419501D01*
G01X2923601Y4419501D02*
G01X2733599Y4419501D01*
G01X2923601Y4069499D02*
G01X2733599Y4069499D01*
G01X2923601Y4069499D02*
G01X2923601Y4419501D01*

G04 Circle Start*
G01X1928601Y2244500D02*
G03X2928599Y2244500I499999J0D01*
G03X1928601Y2244500I-499999J0D01*
G01X1928601Y1144500D02*
G03X2928599Y1144500I499999J0D01*
G03X1928601Y1144500I-499999J0D01*
G01X3074600Y944500D02*
G03X3582600Y944500I254000J0D01*
G03X3074600Y944500I-254000J0D01*
G01X776200Y4496900D02*
G03X827000Y4496900I25400J0D01*
G03X776200Y4496900I-25400J0D01*
G01X1030200Y4496900D02*
G03X1081000Y4496900I25400J0D01*
G03X1030200Y4496900I-25400J0D01*
G01X776200Y4192100D02*
G03X827000Y4192100I25400J0D01*
G03X776200Y4192100I-25400J0D01*
G01X1030200Y4192100D02*
G03X1081000Y4192100I25400J0D01*
G03X1030200Y4192100I-25400J0D01*
G01X814300Y4344500D02*
G03X1042900Y4344500I114300J0D01*
G03X814300Y4344500I-114300J0D01*
G54D12*
G01X2748551Y3694499D02*
G03X2788531Y3694499I19990J0D01*
G03X2748551Y3694499I-19990J0D01*
G04 Circle End*

M02*

