G04 Layer: BottomSolderMaskLayer*
G04 EasyEDA Pro v2.2.35.2, 2025-01-10 12:29:17*
G04 Gerber Generator version 0.3*
G04 Scale: 100 percent, Rotated: No, Reflected: No*
G04 Dimensions in millimeters*
G04 Leading zeros omitted, absolute positions, 4 integers and 5 decimals*
%FSLAX45Y45*%
%MOMM*%
%AMRoundRect*1,1,$1,$2,$3*1,1,$1,$4,$5*1,1,$1,0-$2,0-$3*1,1,$1,0-$4,0-$5*20,1,$1,$2,$3,$4,$5,0*20,1,$1,$4,$5,0-$2,0-$3,0*20,1,$1,0-$2,0-$3,0-$4,0-$5,0*20,1,$1,0-$4,0-$5,$2,$3,0*4,1,4,$2,$3,$4,$5,0-$2,0-$3,0-$4,0-$5,$2,$3,0*%
%ADD10C,1.7016*%
%ADD11C,1.75003*%
%ADD12C,1.9016*%
%ADD13RoundRect,0.09588X0.80286X0.80286X0.80286X-0.80286*%
%ADD14C,1.7526*%
%ADD15O,1.7016X1.0016*%
%ADD16RoundRect,0.09224X-0.80468X-0.45468X-0.80468X0.45468*%
%ADD17C,2.4016*%
%ADD18RoundRect,0.09778X1.50191X1.25191X1.50191X-1.25191*%
%ADD19C,3.10159*%
%ADD20RoundRect,0.09502X0.9025X-0.9025X-0.9025X-0.9025*%
%ADD21C,1.90002*%
%ADD22RoundRect,0.0973X1.10215X-1.10215X-1.10215X-1.10215*%
%ADD23C,2.3016*%
%ADD24RoundRect,0.0973X-1.10215X1.10215X1.10215X1.10215*%
%ADD25RoundRect,0.09565X1.10217X-1.05217X-1.10217X-1.05217*%
%ADD26C,2.3*%
%ADD27C,1.6256*%
G75*


G04 Pad Start*
G54D10*
G01X2428600Y2498500D03*
G01X2428600Y1990500D03*
G01X2428600Y1398500D03*
G01X2428600Y890500D03*
G54D11*
G01X528600Y3517500D03*
G01X528600Y3771500D03*
G01X528600Y2817500D03*
G01X528600Y3071500D03*
G54D12*
G01X4463600Y3344500D03*
G01X3593600Y3344500D03*
G54D13*
G01X3328600Y1071500D03*
G54D10*
G01X3328600Y817500D03*
G54D14*
G01X3301600Y4244500D03*
G01X3555600Y4244500D03*
G54D15*
G01X3228600Y3571500D03*
G01X3228600Y3444500D03*
G54D16*
G01X3228600Y3317500D03*
G54D17*
G01X828600Y769496D03*
G01X828600Y2719504D03*
G01X1428600Y769496D03*
G01X1428600Y2719504D03*
G54D18*
G01X3728600Y2714502D03*
G54D19*
G01X3728600Y2244500D03*
G01X3728600Y1774498D03*
G54D12*
G01X653599Y4494500D03*
G01X1203601Y4494500D03*
G01X653599Y4194500D03*
G01X1203601Y4194500D03*
G54D20*
G01X1609600Y3925500D03*
G54D21*
G01X1355600Y3925500D03*
G01X1101600Y3925500D03*
G01X847600Y3925500D03*
G01X847600Y3163500D03*
G01X1101600Y3163500D03*
G01X1355600Y3163500D03*
G01X1609600Y3163500D03*
G54D22*
G01X4478599Y1044500D03*
G54D23*
G01X3978600Y1044500D03*
G54D24*
G01X3978600Y4244500D03*
G54D23*
G01X4478599Y4244500D03*
G54D25*
G01X2678599Y3494499D03*
G54D26*
G01X2178600Y3494499D03*
G01X2428600Y2994500D03*
G54D27*
G01X2028600Y4619506D03*
G01X2028600Y3869494D03*
G01X2428600Y3869494D03*
G01X2428600Y4619506D03*
G01X2828600Y3869494D03*
G01X2828600Y4619506D03*
G04 Pad End*

M02*

